<svg version="1.1" id="Capa_1" xmlns="http://www.w3.org/2000/svg" xmlns:xlink="http://www.w3.org/1999/xlink" x="0px" y="0px"
	 viewBox="0 0 512 512" style="enable-background:new 0 0 512 512;" xml:space="preserve">
<g>
	<g>
		<path fill="#ffffff" d="M438.94,49.866H17.395C7.787,49.866,0,57.654,0,67.262v326.451c0,9.608,7.787,17.395,17.395,17.395h227.298v-34.791H34.79
			V84.657h386.754v161.196h34.791V67.262C456.335,57.654,448.548,49.866,438.94,49.866z"/>
	</g>
</g>
<g>
	<g>
		<path fill="#ffffff" d="M376.897,15.076c-9.608,0-17.395,7.787-17.395,17.395v62.623c0,9.608,7.787,17.395,17.395,17.395
			s17.395-7.787,17.395-17.395V32.471C394.292,22.863,386.505,15.076,376.897,15.076z"/>
	</g>
</g>
<g>
	<g>
		<path fill="#ffffff" d="M79.438,15.076c-9.608,0-17.395,7.787-17.395,17.395v62.623c0,9.608,7.787,17.395,17.395,17.395
			s17.395-7.787,17.395-17.395V32.471C96.833,22.863,89.046,15.076,79.438,15.076z"/>
	</g>
</g>
<g>
	<g>
		<path fill="#ffffff" d="M197.726,159.456h-20.294c-9.608,0-17.395,7.787-17.395,17.395s7.787,17.395,17.395,17.395h20.294
			c9.608,0,17.395-7.787,17.395-17.395S207.334,159.456,197.726,159.456z"/>
	</g>
</g>
<g>
	<g>
		<path fill="#ffffff" d="M116.548,159.456H96.254c-9.608,0-17.395,7.787-17.395,17.395s7.787,17.395,17.395,17.395h20.294
			c9.608,0,17.395-7.787,17.395-17.395S126.156,159.456,116.548,159.456z"/>
	</g>
</g>
<g>
	<g>
		<path fill="#ffffff" d="M278.904,159.456h-20.294c-9.608,0-17.395,7.787-17.395,17.395s7.787,17.395,17.395,17.395h20.294
			c9.608,0,17.395-7.787,17.395-17.395S288.512,159.456,278.904,159.456z"/>
	</g>
</g>
<g>
	<g>
		<path fill="#ffffff" d="M360.082,159.456h-20.294c-9.608,0-17.395,7.787-17.395,17.395s7.787,17.395,17.395,17.395h20.294
			c9.608,0,17.395-7.787,17.395-17.395S369.69,159.456,360.082,159.456z"/>
	</g>
</g>
<g>
	<g>
		<path fill="#ffffff" d="M197.726,227.298h-20.294c-9.608,0-17.395,7.787-17.395,17.395c0,9.608,7.787,17.395,17.395,17.395h20.294
			c9.608,0,17.395-7.787,17.395-17.395C215.121,235.085,207.334,227.298,197.726,227.298z"/>
	</g>
</g>
<g>
	<g>
		<path fill="#ffffff" d="M116.548,227.298H96.254c-9.608,0-17.395,7.787-17.395,17.395c0,9.608,7.787,17.395,17.395,17.395h20.294
			c9.608,0,17.395-7.787,17.395-17.395C133.943,235.085,126.156,227.298,116.548,227.298z"/>
	</g>
</g>
<g>
	<g>
		<path fill="#ffffff" d="M278.904,227.298h-20.294c-9.608,0-17.395,7.787-17.395,17.395c0,9.608,7.787,17.395,17.395,17.395h20.294
			c9.608,0,17.395-7.787,17.395-17.395C296.299,235.085,288.512,227.298,278.904,227.298z"/>
	</g>
</g>
<g>
	<g>
		<path fill="#ffffff" d="M197.726,294.559h-20.294c-9.608,0-17.395,7.787-17.395,17.395c0,9.608,7.787,17.395,17.395,17.395h20.294
			c9.608,0,17.395-7.787,17.395-17.395C215.121,302.347,207.334,294.559,197.726,294.559z"/>
	</g>
</g>
<g>
	<g>
		<path fill="#ffffff" d="M116.548,294.559H96.254c-9.608,0-17.395,7.787-17.395,17.395c0,9.608,7.787,17.395,17.395,17.395h20.294
			c9.608,0,17.395-7.787,17.395-17.395C133.943,302.347,126.156,294.559,116.548,294.559z"/>
	</g>
</g>
<g>
	<g>
		<path fill="#ffffff" d="M365.88,204.69c-80.575,0-146.12,65.545-146.12,146.12c0,80.563,65.545,146.114,146.12,146.114
			c80.569,0,146.12-65.551,146.12-146.114C512,270.241,446.455,204.69,365.88,204.69z M365.88,462.134
			c-61.388,0-111.33-49.942-111.33-111.33s49.942-111.33,111.33-111.33s111.33,49.942,111.33,111.33S427.268,462.134,365.88,462.134
			z"/>
	</g>
</g>
<g>
	<g>
		<path fill="#ffffff" d="M413.427,343.846h-36.53v-53.925c0-9.608-7.787-17.395-17.395-17.395c-9.608,0-17.395,7.787-17.395,17.395v71.32
			c0,9.608,7.787,17.395,17.395,17.395h53.925c9.608,0,17.395-7.787,17.395-17.395S423.035,343.846,413.427,343.846z"/>
	</g>
</g>

</svg>
